<svg xmlns="http://www.w3.org/2000/svg" viewBox="0 0 760 830" width="760" height="830">
  <style>text{font-family:-apple-system, BlinkMacSystemFont, 'Segoe UI', 'Helvetica Neue', Arial, 'PingFang SC', 'Microsoft YaHei', 'Microsoft JhengHei', 'SimHei', sans-serif;}</style>
  <rect width="760" height="830" fill="#f8f6f3"/>
  <text x="380" y="44" text-anchor="middle" fill="#1a1a1a" font-size="24" font-weight="700">上下文工程 · 上下文的组成</text>
  <text x="380" y="70" text-anchor="middle" fill="#6f6a61" font-size="13">LLM 每次推理读取的全部 token —— 目标是找到最小的高信号集合</text>
  <rect x="257" y="92" width="14" height="14" rx="3" ry="3" fill="#a8c5e6" stroke="#4a4a4a" stroke-width="1.2"/>
  <text x="277" y="104" fill="#4a4644" font-size="13">指导性</text>
  <rect x="349" y="92" width="14" height="14" rx="3" ry="3" fill="#9dd4c7" stroke="#4a4a4a" stroke-width="1.2"/>
  <text x="369" y="104" fill="#4a4644" font-size="13">信息性</text>
  <rect x="441" y="92" width="14" height="14" rx="3" ry="3" fill="#f4e4c1" stroke="#4a4a4a" stroke-width="1.2"/>
  <text x="461" y="104" fill="#4a4644" font-size="13">行动性</text>
  <rect x="190" y="120" width="380" height="662" rx="16" ry="16" fill="none" stroke="#b8b2a6" stroke-width="1.5" stroke-dasharray="6,5"/>
  <text x="200" y="140" fill="#8a8378" font-size="12.5" font-weight="600" letter-spacing="0.04em">上下文窗口 · CONTEXT WINDOW</text>
  <rect x="208" y="150" width="344" height="66" rx="12" ry="12" fill="#a8c5e6" stroke="#4a4a4a" stroke-width="1.8"/>
  <text x="380" y="178" text-anchor="middle" fill="#1a1a1a" font-size="16" font-weight="700">系统提示</text>
  <text x="380" y="200" text-anchor="middle" fill="#33322e" font-size="13">期望输出 · 结果限制 · 任务要求</text>
  <rect x="208" y="227" width="344" height="66" rx="12" ry="12" fill="#9dd4c7" stroke="#4a4a4a" stroke-width="1.8"/>
  <text x="380" y="255" text-anchor="middle" fill="#1a1a1a" font-size="16" font-weight="700">问题相关上下文</text>
  <text x="380" y="277" text-anchor="middle" fill="#33322e" font-size="13">背景知识 · RAG 检索结果</text>
  <rect x="208" y="304" width="344" height="66" rx="12" ry="12" fill="#9dd4c7" stroke="#4a4a4a" stroke-width="1.8"/>
  <text x="380" y="332" text-anchor="middle" fill="#1a1a1a" font-size="16" font-weight="700">用户记忆</text>
  <text x="380" y="354" text-anchor="middle" fill="#33322e" font-size="13">跨会话检索出的相关记忆</text>
  <rect x="208" y="381" width="344" height="66" rx="12" ry="12" fill="#f4e4c1" stroke="#4a4a4a" stroke-width="1.8"/>
  <text x="380" y="409" text-anchor="middle" fill="#1a1a1a" font-size="16" font-weight="700">工具定义与输出</text>
  <text x="380" y="431" text-anchor="middle" fill="#33322e" font-size="13">工具 · MCP · 调用外部能力</text>
  <rect x="208" y="458" width="344" height="66" rx="12" ry="12" fill="#9dd4c7" stroke="#4a4a4a" stroke-width="1.8"/>
  <text x="380" y="486" text-anchor="middle" fill="#1a1a1a" font-size="16" font-weight="700">会话历史记录</text>
  <text x="380" y="508" text-anchor="middle" fill="#33322e" font-size="13">过长时压缩、总结部分</text>
  <rect x="208" y="535" width="344" height="66" rx="12" ry="12" fill="#a8c5e6" stroke="#4a4a4a" stroke-width="1.8"/>
  <text x="380" y="563" text-anchor="middle" fill="#1a1a1a" font-size="16" font-weight="700">结构化输出</text>
  <text x="380" y="585" text-anchor="middle" fill="#33322e" font-size="13">约束大模型输出的格式</text>
  <rect x="208" y="612" width="344" height="66" rx="12" ry="12" fill="#9dd4c7" stroke="#4a4a4a" stroke-width="1.8"/>
  <text x="380" y="640" text-anchor="middle" fill="#1a1a1a" font-size="16" font-weight="700">用户输入</text>
  <text x="380" y="662" text-anchor="middle" fill="#33322e" font-size="13">当前这一轮的请求</text>
  <rect x="208" y="689" width="344" height="66" rx="12" ry="12" fill="#e8e6e3" stroke="#4a4a4a" stroke-width="1.8"/>
  <text x="380" y="717" text-anchor="middle" fill="#1a1a1a" font-size="16" font-weight="700">许多……</text>
  <text x="380" y="739" text-anchor="middle" fill="#33322e" font-size="13">更多可注入的上下文成分</text>
  <text x="380" y="812" text-anchor="middle" fill="#6f6a61" font-size="12">窗口容量有限 · 需不断裁剪 / 压缩</text>
</svg>