<svg xmlns="http://www.w3.org/2000/svg" viewBox="0 0 900 500" width="900" height="500">
  <style>text{font-family:-apple-system, BlinkMacSystemFont, 'Segoe UI', 'Helvetica Neue', Arial, 'PingFang SC', 'Microsoft YaHei', 'Microsoft JhengHei', 'SimHei', sans-serif;}</style>
  <rect width="900" height="500" fill="#f8f6f3"/>
  <text x="450" y="40" text-anchor="middle" fill="#1a1a1a" font-size="24" font-weight="700">从 Context 到 Harness</text>
  <text x="450" y="64" text-anchor="middle" fill="#6f6a61" font-size="13">上下文工程管「模型看到什么」，Harness 管「模型做完之后怎么办」</text>
  <rect x="50" y="90" width="800" height="330" rx="20" ry="20" fill="#f1ede6" stroke="#8a8378" stroke-width="2"/>
  <text x="72" y="118" fill="#1a1a1a" font-size="15" font-weight="700">Harness Engineering · 模型「能做什么」</text>
  <rect x="72" y="140" width="440" height="250" rx="16" ry="16" fill="#d7efe6" stroke="#2f9e7d" stroke-width="2"/>
  <text x="92" y="168" fill="#1a1a1a" font-size="15" font-weight="700">上下文工程 · 模型「看到什么」</text>
  <text x="92" y="187" fill="#33322e" font-size="12">持续动态组装当下最相关的上下文</text>
  <rect x="92" y="204" width="190" height="42" rx="9" ry="9" fill="#ffffff" stroke="#2f9e7d" stroke-width="1.5"/>
  <text x="187" y="230" text-anchor="middle" fill="#1a5c48" font-size="13" font-weight="600">RAG 检索</text>
  <rect x="302" y="204" width="190" height="42" rx="9" ry="9" fill="#ffffff" stroke="#2f9e7d" stroke-width="1.5"/>
  <text x="397" y="230" text-anchor="middle" fill="#1a5c48" font-size="13" font-weight="600">MCP 工具描述</text>
  <rect x="92" y="252" width="190" height="42" rx="9" ry="9" fill="#ffffff" stroke="#2f9e7d" stroke-width="1.5"/>
  <text x="187" y="278" text-anchor="middle" fill="#1a5c48" font-size="13" font-weight="600">用户记忆</text>
  <rect x="302" y="252" width="190" height="42" rx="9" ry="9" fill="#ffffff" stroke="#2f9e7d" stroke-width="1.5"/>
  <text x="397" y="278" text-anchor="middle" fill="#1a5c48" font-size="13" font-weight="600">压缩 / 摘要</text>
  <rect x="92" y="300" width="190" height="42" rx="9" ry="9" fill="#ffffff" stroke="#2f9e7d" stroke-width="1.5"/>
  <text x="187" y="326" text-anchor="middle" fill="#1a5c48" font-size="13" font-weight="600">子 agent 隔离</text>
  <rect x="302" y="300" width="190" height="42" rx="9" ry="9" fill="#ffffff" stroke="#2f9e7d" stroke-width="1.5"/>
  <text x="397" y="326" text-anchor="middle" fill="#1a5c48" font-size="13" font-weight="600">上下文预算</text>
  <text x="92" y="368" fill="#b06a3a" font-size="12" font-weight="600">⚠ 失效模式：Context Rot（信息过载）</text>
  <text x="532" y="168" fill="#8a6a3a" font-size="13" font-weight="700">Harness 专属能力</text>
  <rect x="532" y="190" width="142" height="42" rx="9" ry="9" fill="#f4e4c1" stroke="#cbb98e" stroke-width="1.5"/>
  <text x="603" y="216" text-anchor="middle" fill="#5a4a26" font-size="12.5" font-weight="600">沙箱 Sandbox</text>
  <rect x="690" y="190" width="142" height="42" rx="9" ry="9" fill="#f4e4c1" stroke="#cbb98e" stroke-width="1.5"/>
  <text x="761" y="216" text-anchor="middle" fill="#5a4a26" font-size="12.5" font-weight="600">工具执行</text>
  <rect x="532" y="238" width="142" height="42" rx="9" ry="9" fill="#f4e4c1" stroke="#cbb98e" stroke-width="1.5"/>
  <text x="603" y="264" text-anchor="middle" fill="#5a4a26" font-size="12.5" font-weight="600">子 agent 编排</text>
  <rect x="690" y="238" width="142" height="42" rx="9" ry="9" fill="#f4e4c1" stroke="#cbb98e" stroke-width="1.5"/>
  <text x="761" y="264" text-anchor="middle" fill="#5a4a26" font-size="12.5" font-weight="600">Hook 钩子</text>
  <rect x="532" y="286" width="142" height="42" rx="9" ry="9" fill="#f4e4c1" stroke="#cbb98e" stroke-width="1.5"/>
  <text x="603" y="312" text-anchor="middle" fill="#5a4a26" font-size="12.5" font-weight="600">生命周期</text>
  <rect x="690" y="286" width="142" height="42" rx="9" ry="9" fill="#f4e4c1" stroke="#cbb98e" stroke-width="1.5"/>
  <text x="761" y="312" text-anchor="middle" fill="#5a4a26" font-size="12.5" font-weight="600">人工审核 HITL</text>
  <text x="532" y="352" fill="#b06a3a" font-size="12" font-weight="600">⚠ 失效模式：早停 · 错误累积</text>
  <rect x="50" y="436" width="800" height="48" rx="10" ry="10" fill="#e8e6e3" stroke="#8a8378" stroke-width="1.6"/>
  <text x="450" y="466" text-anchor="middle" fill="#1a1a1a" font-size="15" font-weight="600">Agent = Model + Harness　·　「如果你不是模型，你就是 Harness」</text>
</svg>